<svg xmlns="http://www.w3.org/2000/svg" width="100" height="100">
  <rect width="100" height="100" fill="#92acdd"/>
  <path fill="#cfdaf0" d="M26.979105203407688,21.607566445337035 a0.767363162957135,0.767363162957135 0 0 0 0,16.881989585056978 a0.767363162957135,0.767363162957135 0 0 0 0,-16.881989585056978 M73.0208949808358,21.607566445337035 a0.767363162957135,0.767363162957135 0 0 0 0,16.881989585056978 a0.767363162957135,0.767363162957135 0 0 0 0,-16.881989585056978 M50.00000009212175,61.510450919108074 a0.767363162957135,0.767363162957135 0 0 0 0,16.881989585056978 a0.767363162957135,0.767363162957135 0 0 0 0,-16.881989585056978 M26.979105203407688,30.048561237865524 m11.51044744435703,-4.604178977742812 l23.02089488871406,0 l0,9.208357955485624 l-23.02089488871406,0 M26.979105203407688,30.048561237865524 m9.745512169555619,7.6736316295713545 l11.51044744435703,19.95144223688552 l-7.980576894754208,4.604178977742812 l-11.51044744435703,-19.95144223688552 M73.0208949808358,30.048561237865524 m-1.7649352748014113,12.277810607314166 l-11.51044744435703,19.95144223688552 l-7.980576894754208,-4.604178977742812 l11.51044744435703,-19.95144223688552 "/>
</svg>
