<svg xmlns="http://www.w3.org/2000/svg" viewBox="0 0 100 100">
  <rect width="100" height="100" fill="#92acdd"/>
  <path fill="#cfdaf0" fill-rule="evenodd" d="
        M 10 35
        a 1 1 0 0 1 45 0
        M 20 35
        a 1 1 0 0 1 25 0
        M 45 65
        a 1 1 0 0 0 45 0
        M 55 65
        a 1 1 0 0 0 25 0
        M 15 40
        a 1 1 0 0 0 0 20
        a 1 1 0 0 0 0 -20
        M 50 40
        a 1 1 0 0 0 0 20
        a 1 1 0 0 0 0 -20
        M 85 40
        a 1 1 0 0 0 0 20
        a 1 1 0 0 0 0 -20"/>
</svg>
